# xmcd
#
# Track frame offsets:
#	150
#	14693
#	28708
#	43335
#	61041
#	75585
#	93217
#	114824
#	129424
#	144447
#	162703
#	180884
#	198407
#
# Disc length: 2795 seconds
#
# Revision: 0
# Processed by: cddbd v1.5PL3 Copyright (c) Steve Scherf et al.
# Submitted via: dBpowerAMP V4.0
#
DISCID=a20ae90d
DTITLE=Monika and Tor-Erik - Acousticovers
DYEAR=2003
DGENRE=Country
TTITLE0=Honey I`m Home
TTITLE1=Hollywood Lie
TTITLE2=Desperado
TTITLE3=Don`t Speak
TTITLE4=I`m Holding On To Love
TTITLE5=Feel
TTITLE6=Trust Me (This Is Love)
TTITLE7=Every Little Thing
TTITLE8=Ironic
TTITLE9=I`m Gonna Getcha
TTITLE10=Complicated
TTITLE11=Underneath Your Clothes
TTITLE12=Fly Me To The Moon
EXTD=
EXTT0=
EXTT1=
EXTT2=
EXTT3=
EXTT4=
EXTT5=
EXTT6=
EXTT7=
EXTT8=
EXTT9=
EXTT10=
EXTT11=
EXTT12=
PLAYORDER=
